<svg width="118" height="99" viewBox="0 0 118 99" fill="none" xmlns="http://www.w3.org/2000/svg">
<path d="M117.998 18.1185C118.059 21.8083 115.339 28.6953 110.742 28.6326C110.559 28.6297 110.38 28.5783 110.224 28.4836C110.147 28.4566 110.072 28.424 110 28.3856C105.597 25.5339 100.992 23.0059 96.2214 20.8214C94.5142 20.0824 92.5012 19.486 91.0387 18.3257C89.9582 17.4634 88.9983 15.741 87.8421 15.1029C87.1692 14.7363 85.8901 14.9469 85.1415 14.9126C84.5099 14.8853 80.5786 14.9539 80.5786 13.8956L80.579 13.8961C80.4783 20.3209 79.8279 26.7252 78.634 33.0399C78.3757 34.4713 78.178 35.943 77.9394 37.4022C79.6892 38.5216 81.4988 39.5451 83.3598 40.4682C83.5669 40.4621 83.7703 40.5237 83.9385 40.6446C85.7677 41.8861 86.5573 43.7037 87.6792 45.522C88.8784 47.574 90.4194 49.4066 92.2363 50.9425C92.5384 51.0343 92.7865 51.2511 92.9178 51.5377C93.0492 51.8243 93.0513 52.1534 92.924 52.4416C90.861 56.9389 87.1843 60.6162 84.2864 64.5914C81.253 68.7499 78.3146 72.9827 75.5199 77.3045C72.6965 81.6594 69.9214 86.0437 67.1946 90.4576C65.3929 93.3551 63.6857 96.3807 60.9315 98.4832H60.9311C60.6204 98.7567 60.1509 98.7477 59.8505 98.4624C59.6348 98.4987 59.4126 98.4644 59.2182 98.3644C49.9007 93.9348 40.2358 90.2654 31.3943 84.7901C26.9533 82.0466 22.2263 79.9126 17.7307 77.2805C13.4997 74.8045 9.15408 72.3687 4.69895 70.3238V70.3242C4.41939 70.2136 4.22007 69.9633 4.17545 69.6669C3.12145 67.9367 2.74696 66.0415 1.88376 64.226V64.2256C1.08561 62.7534 0.50116 61.175 0.148673 59.5383C0.130664 59.4534 0.126161 59.3665 0.135165 59.2807C0.0815462 58.9725 0.183054 58.6577 0.407358 58.4389C6.79823 51.8594 10.3486 43.4965 14.9511 35.7091C17.6104 31.2174 20.4121 26.8017 23.3706 22.5006C25.8874 18.8312 28.7566 15.4598 31.3009 11.837L31.341 11.7958L31.3414 11.7954C31.391 11.4737 31.6001 11.1989 31.8977 11.065C32.1948 10.9307 32.5403 10.9556 32.8149 11.1311C37.3787 13.993 42.0922 16.6055 46.6483 19.4685C47.6306 20.0789 48.5932 20.7101 49.5532 21.3408C49.5683 21.3326 49.5839 21.3257 49.6002 21.3204C58.3332 18.1184 66.2847 13.2132 74.8391 9.63152C74.397 6.78998 75.8599 5.23502 78.3894 4.11598V4.11639C82.0224 2.38124 85.8552 1.09812 89.8023 0.295135C89.9615 0.190213 90.149 0.135918 90.3397 0.139179C94.822 0.0775321 95.9644 5.65357 98.5422 8.2382C98.5892 8.28638 98.6306 8.33619 98.6707 8.38804V8.38844C98.7051 8.4109 98.7378 8.4358 98.7689 8.46275C100.095 9.61606 101.877 10.0836 103.435 10.8233C104.87 11.5092 106.21 12.3567 107.632 13.0483C110.733 14.5614 114.133 15.2194 117.153 16.895C117.325 16.9844 117.465 17.124 117.554 17.2951C117.837 17.4722 118.005 17.785 117.998 18.1181L117.998 18.1185ZM114.483 23.4164V23.416C115.378 21.9507 115.882 20.281 115.945 18.5659C112.632 16.7748 108.891 16.0421 105.58 14.2176C102.907 12.7389 99.635 11.9178 97.3228 9.90635H97.3223C97.265 9.8545 97.2127 9.79734 97.166 9.73611C97.1423 9.71978 97.1193 9.70181 97.0985 9.68222C95.9692 8.35865 94.9839 6.91875 94.16 5.38731C93.3369 4.11349 92.2621 2.34991 90.6032 2.1923C90.5332 2.22129 90.46 2.2417 90.3851 2.25395C87.4503 2.77284 84.5938 3.66165 81.8838 4.89942C80.0615 5.72043 76.749 6.24263 76.7756 8.6844C77.0376 8.65174 77.2938 8.58356 77.5369 8.48191C77.7952 8.38556 78.0437 8.26512 78.2786 8.12223C78.5864 7.92995 78.9118 7.76827 79.2511 7.64008C80.0055 7.32163 80.8355 7.21304 81.5703 6.96195C84.7391 6.08011 86.9633 4.51235 87.1941 4.81816C87.2825 4.94064 86.8012 5.45586 85.8953 6.14089L85.1201 6.64958C84.8066 6.8533 81.3242 8.32505 83.1752 8.36633C84.011 8.38675 84.8452 8.40634 85.6908 8.39981L85.6916 8.3994C86.2855 8.46595 86.8831 8.48881 87.4802 8.46799C88.0451 8.35245 87.9771 7.86459 88.1265 7.40978C88.2022 7.13911 88.3168 6.88068 88.4667 6.64267C88.7114 6.27034 88.9157 6.15276 88.9766 6.17521C89.0581 6.21522 88.9627 6.45936 88.8686 6.83945H88.8682C88.8117 7.0648 88.7732 7.29425 88.7523 7.52532C88.7523 7.66168 88.7523 7.81029 88.7454 7.96625C88.7622 8.17487 88.7507 8.38471 88.711 8.59048C88.6836 8.69336 88.6328 8.78889 88.562 8.86892C88.5215 8.91464 88.4761 8.95588 88.4261 8.9914L88.3103 9.05917V9.05876C88.2428 9.09061 88.1719 9.11551 88.0991 9.13347C88.0311 9.15389 87.9706 9.16777 87.9153 9.18165C87.6431 9.23554 87.4802 9.24248 87.2494 9.27963C86.8143 9.32658 86.3448 9.37761 85.8487 9.43559C85.3527 9.49356 84.8349 9.50989 84.2839 9.52377C83.733 9.53765 83.1956 9.55112 82.5628 9.54418C81.9734 9.51683 81.4274 9.456 80.9378 9.46294V9.46253C80.5408 9.42905 80.1421 9.50907 79.7885 9.69279C79.7815 9.72014 79.7745 9.73974 79.768 9.76709C80.659 12.5555 83.3654 12.7584 85.8752 12.9222C87.1817 13.0104 88.4735 12.9691 89.4391 13.8922C89.4804 13.9322 89.5275 13.9804 89.5688 14.0273V14.0277C90.0227 14.3421 90.4587 14.6822 90.8741 15.0455C91.4934 15.6269 92.1675 16.147 92.8871 16.5985L93.0238 16.6728L93.0573 16.6932C93.0643 16.6932 93.1331 16.7206 93.1331 16.7206L93.4593 16.8422L93.4589 16.8426C93.6611 16.9296 93.8702 17.0002 94.0843 17.0533C94.275 17.1003 94.4654 17.1688 94.6549 17.2023H94.6553C95.9163 17.3232 97.1889 17.1872 98.3959 16.8022H98.716C99.0901 16.8092 99.2865 16.8561 99.2935 16.9374C99.3005 17.0186 99.1097 17.1207 98.7974 17.2432C98.716 17.2705 98.6345 17.304 98.5391 17.3411C98.4438 17.3783 98.3427 17.4391 98.2326 17.4902C98.0087 17.5881 97.7414 17.7147 97.4574 17.8429H97.4578C97.1402 17.9915 96.8119 18.1164 96.4754 18.2164L96.4075 18.2369L96.3731 18.2438L96.2917 18.2634L96.1353 18.2838C96.0371 18.2907 95.9241 18.3042 95.8218 18.3112L95.6048 18.3316C96.8425 18.8607 98.0803 19.3898 99.271 20.014C103.235 22.0823 107.16 24.233 110.96 26.5935C112.468 26.4282 113.774 24.5763 114.481 23.4161L114.483 23.4164ZM84.0527 61.4868C86.195 58.651 88.6696 55.9713 90.4113 52.8644C88.3709 51.711 85.9703 51.277 83.984 50.0494C81.8896 48.7539 79.8582 47.3352 77.7679 46.0264C77.1294 45.6198 76.483 45.2258 75.8368 44.8262H75.8363C75.5028 45.5092 75.1115 46.1628 74.6666 46.7796C73.9053 47.8378 72.137 46.8196 72.9053 45.7549H72.9049C73.3612 45.1201 73.7595 44.4461 74.0955 43.7406C70.6132 41.6038 67.1034 39.5078 63.6152 37.3774C61.8392 36.2919 60.0915 35.1239 58.3441 33.9648C57.32 34.8471 56.359 35.7992 55.4671 36.8141C54.6174 37.8184 53.1823 36.3662 54.0251 35.3758H54.0247C54.8175 34.465 55.6709 33.608 56.5788 32.8115C54.4852 31.4181 52.3117 30.1472 50.07 29.0057C47.7292 27.9499 45.4755 26.7118 43.3304 25.302C41.8536 24.087 40.1632 23.1566 38.3451 22.5585C35.791 25.9976 34.4677 30.0953 31.8903 33.5011C29.0211 37.2791 26.1297 41.0172 23.3825 44.8911C17.7174 52.862 12.3804 61.05 6.78083 69.0694C11.2427 71.1927 15.5334 73.695 19.8189 76.1445C24.3278 78.7223 28.9665 80.9603 33.4217 83.6541C41.9238 88.7961 51.2022 92.3166 60.117 96.5501C63.633 93.7409 65.8706 88.7353 68.2312 85.018C70.7607 81.0224 73.241 76.9835 75.8827 73.0511C78.5096 69.1331 81.218 65.2586 84.054 61.4877L84.0527 61.4868ZM89.2276 50.9246C88.2342 49.8398 87.3248 48.6807 86.5073 47.458C85.3785 45.8098 84.6851 43.6996 83.025 42.4923C82.9051 42.4789 82.7876 42.4458 82.6783 42.3944C80.9155 41.5521 79.2012 40.6123 77.5436 39.5794C77.269 40.9834 76.8707 42.3604 76.353 43.6946C77.0336 44.1159 77.7134 44.5365 78.3864 44.9684C80.9404 46.5901 83.467 48.7065 86.3167 49.7696C87.3031 50.1448 88.2756 50.5114 89.2276 50.9246ZM78.7169 12.4539C78.7374 12.4212 78.7623 12.3914 78.7914 12.3657C78.6011 12.1158 78.4324 11.8505 78.2875 11.572C76.8051 13.3153 75.4724 15.2688 73.9485 16.9513C71.6429 19.4988 69.2558 21.9917 67.0251 24.6037C65.6822 26.1776 64.363 27.8057 62.9878 29.3726C64.2181 30.0038 65.4559 30.6244 66.701 31.2342C69.0586 28.4663 70.6304 25.2238 72.3662 22.0357C74.1758 18.7182 76.4744 15.7599 78.5688 12.6294H78.5684C78.6122 12.5649 78.6633 12.5061 78.7206 12.4539L78.7169 12.4539ZM76.88 31.1912C77.7346 26.2855 78.272 21.3298 78.4889 16.3554C76.7166 18.8127 75.0904 21.3725 73.6194 24.0205C72.2138 26.8979 70.5259 29.6291 68.58 32.1747C69.7154 32.745 70.8512 33.3085 71.9796 33.8844C73.4004 34.6152 74.7756 35.4383 76.143 36.2859C76.4082 34.5565 76.6117 32.8262 76.8835 31.1916L76.88 31.1912ZM74.5919 42.601C75.1036 41.2685 75.4936 39.8922 75.7581 38.4899C73.8335 37.3034 71.9016 36.1089 69.8748 35.0976C67.0997 33.7141 64.305 32.364 61.5437 30.946C61.3325 31.1636 61.1291 31.3939 60.9109 31.6115C60.3666 32.1545 59.8017 32.6628 59.2409 33.1715C60.5397 34.0133 61.8392 34.8539 63.1584 35.661C66.9613 37.9881 70.7972 40.2605 74.5922 42.601L74.5919 42.601ZM73.3751 14.5567C74.2866 13.5593 75.0754 12.4607 75.8907 11.3821C67.6273 14.787 59.9492 19.455 51.6274 22.7177C54.0488 24.3263 56.4879 25.9193 59.0587 27.3168C59.7316 27.6834 60.4054 28.0292 61.0852 28.3889C62.8878 26.3402 64.6216 24.2303 66.4516 22.209C68.7577 19.6587 71.0653 17.1078 73.3754 14.5566L73.3751 14.5567ZM59.6476 29.9559C58.7496 29.4749 57.8519 28.9928 56.9679 28.4862C52.7038 26.0444 48.7528 23.1266 44.5564 20.5692C40.9316 18.3716 37.252 16.2482 33.6402 14.0297C34.2927 14.9724 35.0155 15.8543 35.5991 16.8516C36.4628 18.3577 37.2445 19.8637 38.2514 21.2882V21.2886C40.0613 21.727 41.7517 22.5586 43.2023 23.7243C45.2362 25.1262 47.3784 26.3645 49.6088 27.4281C52.3094 28.8071 54.9278 30.3406 57.4511 32.0205C58.2006 31.3473 58.9492 30.6753 59.6475 29.9559L59.6476 29.9559ZM37.2598 21.9752C37.2459 21.9626 37.2255 21.9556 37.2115 21.9352C36.0896 20.3479 35.3214 18.5569 34.2195 16.9695C33.5466 16.0065 32.8118 15.0904 32.2 14.086C26.6408 21.9107 20.7662 29.4068 16.0667 37.8484C11.884 45.3518 8.17085 53.1869 2.21555 59.4828C2.69034 61.0522 3.29575 62.5791 4.02514 64.048C4.51508 65.5215 5.10125 66.9618 5.77982 68.3593C11.3533 60.3746 16.6992 52.2337 22.3186 44.2708C25.0593 40.3976 28.0722 36.7261 30.8264 32.8808C33.3081 29.4151 34.7156 25.4056 37.2598 21.9758L37.2598 21.9752Z" fill="#F4D37C"/>
</svg>
