<svg width="88" height="64" viewBox="0 0 88 64" fill="none" xmlns="http://www.w3.org/2000/svg">
<path d="M86.3522 20.9418C86.7739 21.0196 87.0893 21.3729 87.1182 21.8001C87.1471 22.2272 86.8826 22.6195 86.475 22.7535C86.2974 22.8142 86.1237 22.8863 85.9558 22.9698C85.9455 22.9698 85.9455 22.9791 85.9371 22.9884C81.9639 26.754 78.4964 30.8396 74.6299 34.6978C70.8843 38.4346 66.7632 41.7366 62.9266 45.3798C59.1698 48.9252 56.1553 53.1071 52.477 56.7116C50.8221 58.3353 48.9135 59.6754 47.4099 61.4397C46.445 62.5623 45.8206 63.3921 44.4027 63.7988H44.403C43.9936 63.9343 43.549 63.7327 43.382 63.3359C43.298 63.2728 43.2248 63.1962 43.1652 63.1097C37.8989 59.6 34.0325 54.5303 30.1836 49.5592C29.7017 48.9268 29.2114 48.3041 28.7006 47.6846C26.3744 45.6371 23.7455 43.9948 21.4492 41.9168C18.9337 39.6422 16.5889 37.095 14.2917 34.5947C12.1359 32.2545 10.4527 30.0186 7.90055 28.075V28.0747C6.79772 27.1753 5.76432 26.1945 4.80867 25.1404C3.62632 24.5014 2.58937 23.6245 1.76371 22.5653C1.74475 22.5434 1.7288 22.5194 1.71676 22.4932C1.70231 22.4857 1.68936 22.4761 1.67853 22.4644C0.956127 22.6909 0.0618899 21.9648 0.582019 21.1717C1.28214 20.1053 2.26523 19.8697 3.30488 19.5855C5.59275 17.4716 8.99679 16.1414 11.5491 14.4717C15.3129 11.9994 18.2999 8.76223 22.2515 6.51755C23.1126 6.02669 25.8259 3.54505 27.3582 3.80007L27.3579 3.79977C27.478 3.65107 27.6502 3.55344 27.8395 3.5258C30.3059 3.11064 32.4996 1.05348 34.9392 0.902982C38.0874 0.695403 41.3584 1.1388 44.5258 1.1388C47.5512 1.1388 51.0882 0.629912 54.0561 1.25206C56.3446 1.81382 58.5236 2.75107 60.5045 4.02568C60.8046 3.98242 61.1098 4.05722 61.356 4.23386C65.1941 7.21512 69.4007 9.54593 73.3344 12.3765C77.1255 15.1032 81.3714 18.1134 85.7667 19.8025H85.767C86.2245 19.9779 86.4767 20.4685 86.3527 20.9416L86.3522 20.9418ZM80.3873 24.7002C81.2764 23.7083 82.3047 22.8499 83.4403 22.1521C79.4903 20.8435 75.6654 19.1859 72.0106 17.199C69.9779 15.9941 68.0202 14.6675 66.1483 13.2265C65.1026 12.315 63.9904 11.4826 62.821 10.7355C63.5579 12.4529 64.7498 13.7831 65.5243 15.566H65.524C65.983 16.8661 66.3063 18.2099 66.4893 19.5761C67.1605 22.8977 68.7483 26.1067 68.9186 29.4937C68.9373 29.4937 68.9469 29.4751 68.9656 29.4751C72.7949 28.6793 77.6167 27.7282 80.3876 24.7001L80.3873 24.7002ZM74.1936 32.5013C75.3097 31.3117 76.4156 30.0948 77.4841 28.8589C75.0047 29.9019 72.4216 30.68 69.7785 31.1799C69.7168 31.3607 69.5976 31.5163 69.439 31.6233C68.0959 32.5482 67.4162 34.3408 66.6881 35.7091C65.988 37.0207 65.0426 38.0018 64.2774 39.2569C63.0003 41.3796 61.6304 43.4464 60.2398 45.494C61.2605 44.4465 62.3101 43.4182 63.4184 42.4268C67.0473 39.172 70.857 36.0769 74.1939 32.5016L74.1936 32.5013ZM79.7721 18.8193C76.9453 17.1112 74.2508 15.1201 71.5193 13.3276C68.3046 11.2137 65.0899 9.19432 61.9798 6.95841V6.95871C62.0818 7.47721 62.1197 8.00622 62.093 8.53401C65.3359 9.15706 68.2195 12.7713 70.8951 14.4033C73.7317 16.1088 76.7005 17.5855 79.7727 18.8193L79.7721 18.8193ZM67.0277 28.783C66.696 25.5753 65.2867 22.0557 64.5406 19.0454C63.746 15.8653 61.651 13.5162 60.7495 10.466C60.7495 10.4762 60.7402 10.4762 60.7402 10.4846C59.0296 11.3153 56.9584 11.3246 55.143 12.1645C54.3875 12.5136 53.735 12.8134 53.0827 13.0513C55.5208 14.9979 57.3377 19.2697 59.1147 21.4015C60.4389 22.8098 61.8502 24.1343 63.3399 25.3669C64.4789 26.5991 65.7118 27.7413 67.0277 28.7828L67.0277 28.783ZM65.0989 34.7743C65.5324 33.7478 66.0742 32.7703 66.7156 31.8589C59.4358 32.4254 52.3076 34.5764 45.0558 34.5863C44.9228 36.7095 44.3268 38.7952 44.2895 40.8891C44.2419 43.2482 44.3653 45.5977 44.3653 47.9468C44.3653 52.3634 44.2708 56.7231 44.6766 61.092C47.7498 58.0258 51.0966 55.128 53.659 51.6367C55.7865 48.7296 57.7045 45.7009 59.767 42.7689C61.4782 40.3232 63.9178 37.5019 65.0989 34.7747L65.0989 34.7743ZM65.7223 30.1039C63.4344 28.5568 61.4024 26.2921 59.4823 24.4989C57.9721 22.9807 56.611 21.3221 55.4173 19.5452C54.6804 18.5172 54.0086 17.4508 53.2615 16.4321C52.2869 14.0823 51.6881 13.7802 51.4657 15.5258C50.0477 20.0073 48.4207 24.3483 46.8041 28.7641C46.3511 30.0093 45.8788 31.6423 44.9511 32.746C51.8726 32.7553 58.7735 30.7834 65.7224 30.1072L65.7223 30.1039ZM56.6751 9.42134C58.2825 8.98875 60.5602 9.33632 60.1261 7.06223C60.0539 6.64707 59.975 6.2409 59.9094 5.82577C57.1944 4.21232 54.6891 2.99893 51.3615 2.99893H43.1828C40.1761 2.99893 36.2435 2.0364 33.4637 3.40477H33.464C31.9229 4.24649 30.2712 4.86895 28.5574 5.25409C28.6699 6.47732 28.502 7.71025 28.0661 8.85896C28.8385 8.99865 29.5886 9.24109 30.2962 9.57994C31.5634 10.1835 34.2586 12.2878 35.6384 11.967V11.9673C38.546 11.3091 41.5268 11.03 44.5068 11.1372C46.1048 11.1583 47.6998 11.2841 49.2812 11.5142C52.7509 12.0538 53.8484 10.1856 56.675 9.4213L56.6751 9.42134ZM47.3059 22.3989C48.1944 19.9548 48.63 15.9353 50.1428 13.5003C47.8549 13.3973 45.6422 12.9236 43.3254 12.9632C41.0375 13.0593 38.758 13.2988 36.5002 13.68C37.9203 16.1111 38.1732 19.3649 39.1087 21.951C40.3094 25.235 42.777 28.0469 43.7697 31.2933C45.4818 29.1608 46.7018 24.1031 47.3059 22.3932V22.3989ZM43.2306 34.2275C43.1566 34.1335 43.1051 34.0235 43.0804 33.9067C41.3776 33.4828 39.4591 34.1332 37.7759 34.1332L30.9218 34.1329C28.7943 34.1329 26.4682 34.4732 24.3603 34.1055C23.2686 33.8658 22.1946 33.5528 21.1456 33.1682C22.3445 34.8316 23.4281 36.5749 24.3883 38.386C26.0901 41.3766 28.3031 43.8654 30.2969 46.6417C30.3132 46.6582 30.3261 46.6774 30.3352 46.6988C30.5158 46.8502 30.6964 47.001 30.8646 47.1608C31.0437 47.3221 31.1439 47.5531 31.1391 47.7937C34.4761 52.3785 38.2491 57.1914 42.7862 60.606C42.4364 56.3985 42.5312 52.2003 42.5312 47.9437C42.5312 45.6134 42.266 43.2162 42.4466 40.886C42.6158 38.6534 43.1561 36.4919 43.2305 34.2275L43.2306 34.2275ZM41.0562 32.0198C41.4174 32.0012 41.7466 32.0012 42.0778 32.0105C41.5576 30.3523 40.3374 28.7835 39.5153 27.2839V27.2836C38.6271 25.7438 37.8954 24.1186 37.3316 22.433C36.7928 20.6876 36.1122 18.9419 35.7047 17.1584C35.2321 15.0547 34.892 13.4598 33.5215 16.5261C30.6855 22.8196 24.388 25.9707 19.9635 30.9256C21.8923 31.369 23.6694 32.2465 25.721 32.2465L33.6732 32.2462C36.1779 32.2462 38.5705 32.19 41.0562 32.02V32.0198ZM32.6324 14.3757C32.9063 14.0363 33.1525 13.6959 33.427 13.3751C31.574 12.6763 29.9378 11.243 27.8579 10.7074V10.7071C27.6336 12.0205 27.2953 13.3119 26.8465 14.5668C25.8331 18.6075 24.3542 22.5179 22.4398 26.22C24.5164 24.6865 26.4417 22.9582 28.1889 21.0594C29.947 18.98 30.9774 16.4415 32.6323 14.376L32.6324 14.3757ZM26.1942 8.46881C26.4022 7.46875 26.6009 5.93966 26.8944 5.72249C26.0763 6.36446 25.2136 6.94841 24.3133 7.46936C21.4809 9.03659 18.8224 10.8973 16.3811 13.0209C16.2294 13.1651 16.0591 13.2949 15.8986 13.4361H15.8983C17.7152 12.7319 19.4574 11.8499 21.0996 10.8033C22.6218 9.78466 24.1054 8.74646 25.9499 8.48237C26.0309 8.47336 26.1125 8.46885 26.194 8.46855L26.1942 8.46881ZM25.8728 10.5539C26.0049 10.2517 22.4594 12.1112 22.0338 12.3846C18.4414 14.6867 13.9791 15.4797 10.4245 17.7631L10.4248 17.7628C8.96108 18.7863 7.43591 19.7191 5.85772 20.5557C5.41255 20.7422 4.95385 20.8936 4.4852 21.0087C4.28443 21.185 4.0951 21.3743 3.91811 21.5747C3.87115 21.6236 3.81667 21.6648 3.75708 21.6972C4.56255 22.3608 5.32679 23.0731 6.04557 23.8298C8.27627 25.0092 10.9991 25.5472 13.1835 26.5572C15.0973 27.3461 16.8672 28.4459 18.4209 29.8118C18.3668 29.5961 18.4119 29.3678 18.5438 29.1887C21.0626 25.2891 23.0109 21.0507 24.3302 16.6018C24.9364 14.6964 25.0686 12.3559 25.8726 10.5535L25.8728 10.5539ZM24.2944 41.8331C23.9909 41.3798 23.7074 40.9175 23.4434 40.4458C21.7596 37.4898 20.3233 34.4828 17.7416 32.1902C17.523 32.0087 17.4183 31.7242 17.4671 31.4449C15.6343 29.2429 12.8912 28.2335 10.1036 27.2963C12.0129 28.7208 13.2099 30.7122 14.8203 32.4482C17.3445 35.1946 19.8771 38.2413 22.754 40.6201C23.2636 41.0412 23.7744 41.4378 24.2945 41.8334L24.2944 41.8331Z" fill="#F4D37C"/>
</svg>
