<svg width="107" height="90" viewBox="0 0 107 90" fill="none" xmlns="http://www.w3.org/2000/svg">
<path d="M104.378 34.3781C106.516 37.1025 107.272 40.663 106.427 44.0217C105.918 45.9233 104.883 47.6433 103.442 48.9845C103.46 49.1465 103.469 49.3096 103.467 49.4723C103.471 49.5662 103.45 49.659 103.408 49.7429C103.419 49.7993 103.425 49.8567 103.428 49.9141C103.6 60.5002 100.119 70.9431 91.9988 78.0542C76.0008 92.0682 50.4385 92.4904 31.2238 85.7599C19.7857 81.7591 8.40221 74.4669 3.47202 62.9072C0.556125 56.0715 -0.35131 48.1882 2.33735 41.1016C5.12582 33.7678 10.3464 28.0838 16.0478 22.8492C16.0931 22.808 16.1417 22.7704 16.1929 22.7369C17.9133 16.6206 22.378 11.1885 28.2559 7.61647C40.318 0.29337 55.8154 -1.11708 69.1574 3.33801C79.3476 6.73985 89.6765 13.6216 92.0082 24.5102C94.2198 26.1917 96.0374 28.3358 97.3344 30.7925C97.3609 30.8518 97.3805 30.9111 97.4007 30.9641C100.02 31.3323 102.465 32.1426 104.378 34.3781L104.378 34.3781ZM104.338 44.1734C105.122 41.2399 104.826 37.5086 102.532 35.2491C99.7174 32.4798 95.7684 32.7839 92.0972 32.5329L92.0976 32.5332C91.5358 35.4465 90.3283 38.1967 88.5632 40.5817C90.5149 39.8991 92.5265 39.4024 94.5717 39.0984C97.743 38.5682 102.502 41.1093 100.702 44.9982C98.1837 50.4234 89.6483 50.193 84.7502 50.6735C84.7167 50.676 84.6828 50.6716 84.6511 50.6602C84.4472 50.9897 84.2491 51.3133 84.0326 51.6321C88.1498 52.124 92.3244 51.7146 96.2681 50.433C99.5506 49.3145 103.334 47.8845 104.336 44.1735L104.338 44.1734ZM87.4766 79.1287C96.9552 72.3656 101.471 61.9866 101.444 50.5221C96.1844 53.8374 88.2079 54.1731 82.7122 53.4549C80.2566 56.6568 77.3083 59.4493 73.9779 61.7278C67.1316 66.285 58.9282 68.3558 50.7398 67.5937C43.0014 66.8622 35.394 64.3112 30.2009 58.2534C25.2837 52.5252 22.3565 45.5448 18.5931 39.0717C18.3155 38.6174 18.046 38.1624 17.8023 37.6881C16.6367 35.4634 15.8831 33.046 15.5775 30.5532C15.3736 30.8042 15.1623 31.041 14.945 31.2979C14.339 32.01 13.686 32.6296 13.0535 33.4072H13.0531C11.7156 34.9578 10.5735 36.6669 9.65237 38.4959C9.06184 39.6651 8.5571 40.8761 8.14221 42.1186C7.76927 43.2824 7.47215 44.4693 7.25236 45.6714C6.88457 47.7114 6.75166 49.7863 6.85659 51.8565C6.93648 53.2604 7.11357 54.6568 7.38674 56.0359C7.56346 56.5374 7.6463 57.0668 7.63046 57.598C7.55794 57.6183 7.32747 57.1039 6.97145 56.1615C6.52782 54.7823 6.22777 53.3608 6.07535 51.9202C5.85187 49.7793 5.90967 47.6186 6.24691 45.4929C6.44756 44.2352 6.7362 42.9931 7.11025 41.7756C7.52554 40.473 8.04317 39.2058 8.65915 37.985C9.61937 36.0735 10.8294 34.2978 12.258 32.7055C12.8846 31.9607 13.6294 31.2821 14.2158 30.6227L14.2162 30.6231C14.5199 30.3135 14.8082 29.9891 15.0792 29.6512C15.211 29.4807 15.3361 29.3217 15.4617 29.1571H15.4621C15.4142 28.1013 15.4495 27.0435 15.567 25.9932C11.1118 30.2263 6.77453 34.966 4.58596 40.7272C-1.57711 56.9617 8.95085 72.7099 23.1871 80.1641C33.3406 85.3412 44.5977 87.9791 55.9935 87.8512C66.8896 87.7971 78.4446 85.576 87.4747 79.1291L87.4766 79.1287ZM99.4048 44.9708C99.8109 44.3041 99.9162 43.4963 99.6938 42.7478C99.4714 41.999 98.9427 41.3797 98.2385 41.0425C98.2455 41.0712 98.2499 41.101 98.2517 41.1308C98.4027 42.9245 96.0232 44.4796 94.6519 45.0532C92.2857 46.0491 89.7922 46.0819 87.2765 46.2902V46.2899C87.1498 46.302 87.0217 46.2884 86.9002 46.2501C86.4621 47.3436 85.9515 48.4061 85.3716 49.431C89.3194 49.0883 93.5775 49.0688 97.1038 46.9923C98.0532 46.5597 98.854 45.8565 99.4055 44.9708L99.4048 44.9708ZM95.8067 41.9129C97.1119 40.3305 93.1376 41.319 92.3791 41.4711C90.8417 41.7851 89.3492 42.2895 87.9365 42.9732C87.8375 43.415 87.7252 43.8498 87.5937 44.2916C90.3159 44.1005 93.915 44.1862 95.8067 41.9129ZM92.3722 30.5746C93.262 30.6347 94.1519 30.6737 95.0355 30.733C94.2984 29.5593 93.4218 28.4794 92.4252 27.5167C92.4315 27.622 92.4447 27.728 92.4517 27.8329C92.4823 28.7475 92.4557 29.6631 92.3722 30.5746ZM63.7655 51.8062C75.7823 49.2553 90.9801 42.255 90.4749 27.8329C89.8678 17.292 80.8973 9.93021 71.6853 6.35061C57.7043 0.912128 40.3417 1.35388 27.8046 10.2719C22.1224 14.3194 17.1525 20.4961 17.2901 27.8325C17.4219 34.9446 21.3112 40.9435 27.1185 44.8982C37.6235 52.0498 51.3877 54.4429 63.7665 51.8061L63.7655 51.8062ZM72.1887 60.5537C77.8047 56.7701 83.5401 50.6462 85.6457 43.8942C76.3484 52.7028 59.5857 55.9459 48.2946 54.5086C40.2653 53.4873 30.8791 50.771 24.1723 45.3395C26.0345 49.2034 28.3322 52.8416 31.0212 56.1829C36.0578 62.0562 43.0579 65.0814 50.7364 65.6154C58.1486 66.1297 65.9332 64.7583 72.1885 60.5536L72.1887 60.5537Z" fill="#F4D37C"/>
<path d="M98.8074 56.0638C98.9451 56.077 98.9716 57.0464 98.7677 58.589C98.4396 60.5959 97.8476 62.5504 97.0075 64.4023C96.1482 66.2491 95.0537 67.9772 93.7514 69.5441C92.729 70.7112 91.9912 71.3175 91.8863 71.2229C91.7538 71.1238 92.2883 70.3198 93.1384 69.0536C94.1995 67.4109 95.1552 65.7026 95.9994 63.9384C96.792 62.1469 97.4614 60.3036 98.0033 58.4212C98.3939 56.9713 98.644 56.0443 98.8074 56.0638Z" fill="#F4D37C"/>
<path d="M90.1305 73.4269C90.157 73.4534 89.9255 73.692 89.4583 74.1065C88.9907 74.5211 88.3177 75.1543 87.3686 75.8656H87.3682C84.7234 77.9501 81.8372 79.7096 78.7727 81.1064C78.2849 81.3236 77.7912 81.5482 77.2831 81.7786C76.753 81.9767 76.2228 82.1807 75.675 82.392C75.3985 82.491 75.1209 82.5959 74.8445 82.702C74.5683 82.794 74.2848 82.8861 73.9944 82.9785C73.4208 83.1633 72.8273 83.3477 72.2272 83.5388C71.0012 83.809 69.7348 84.0881 68.4278 84.3756C67.1157 84.6194 65.7454 84.7519 64.3475 84.9492V84.9489C58.2562 85.5239 52.1167 85.3248 46.0753 84.3561C44.4672 84.0796 42.8847 83.7825 41.3296 83.4858C39.8002 83.1173 38.2971 82.7789 36.8138 82.4052H36.8134C33.9413 81.698 31.1364 80.7429 28.4292 79.5512C23.829 77.558 19.5896 74.8185 15.8827 71.4432C13.3884 69.1581 11.3097 66.4572 9.73915 63.4611C9.47408 62.9203 9.21858 62.452 9.05437 62.0235C8.89017 61.5949 8.77089 61.2326 8.66486 60.9429H8.66449C8.5279 60.6509 8.43844 60.3391 8.39941 60.0195C8.59417 60.2754 8.75175 60.5574 8.86772 60.8571C8.99952 61.1406 9.16372 61.4896 9.3618 61.899C9.55987 62.3081 9.83636 62.7491 10.1198 63.2635V63.2631C11.8053 66.1097 13.9273 68.674 16.4085 70.862C20.1184 74.0842 24.3144 76.7003 28.8409 78.6136C31.5023 79.7505 34.2541 80.6636 37.0671 81.3432C38.5497 81.6922 40.0599 82.0501 41.5822 82.4035C43.1179 82.6932 44.6668 82.983 46.2495 83.2536C58.9053 85.238 70.8552 84.0186 78.4631 80.3863H78.4627C81.5129 79.0724 84.4155 77.4395 87.1219 75.5148C88.1045 74.8627 88.8158 74.2822 89.3309 73.9332C89.8286 73.572 90.1051 73.3942 90.1316 73.4269L90.1305 73.4269Z" fill="#F4D37C"/>
<path d="M67.2509 6.70708C77.5269 9.96935 90.6974 18.3705 88.5287 31.0499C86.044 45.6369 66.4385 50.9309 53.876 51.0685C45.0893 50.9492 35.4087 48.6688 28.1816 43.4159H28.182C28.1176 43.4034 28.0572 43.3761 28.0053 43.3364C27.6044 43.0551 27.2233 42.7469 26.8644 42.4141C22.2369 38.6437 18.6842 33.3441 19.126 27.108C19.5413 21.2549 22.7911 16.536 27.2551 12.897C37.9505 4.16867 54.3905 2.62005 67.2508 6.70709L67.2509 6.70708ZM84.0141 38.7944C87.4564 35.1047 88.681 29.865 87.2304 25.032C83.8223 12.2895 68.0751 6.23207 56.0979 5.65243C43.5947 5.04643 23.6016 9.84503 20.4895 24.4194V24.419C19.8772 26.991 19.9206 29.6756 20.615 32.2267C21.3097 34.7773 22.6336 37.1133 24.4656 39.0196C22.3759 34.1547 24.1291 27.8793 27.3 23.5429C32.4532 16.4889 42.1311 12.6863 50.6928 12.2179C60.785 11.6649 71.9574 14.9799 79.4917 22C83.6129 25.8297 86.1691 33.2977 84.0141 38.7953V38.7944ZM80.6389 41.8729C84.2182 38.7944 84.396 32.4601 82.7551 28.2652C81.1399 24.1458 77.6302 21.3245 73.8566 19.2084C66.5854 15.1218 59.1499 12.5247 50.6929 13.1999H50.6925C45.9292 13.6892 41.2863 14.998 36.9688 17.069C35.4199 17.7619 33.476 18.3811 32.2169 19.5739C31.1692 20.5698 30.371 21.7689 29.3497 22.791C24.4185 27.7479 21.8877 37.7936 28.4989 42.4797V42.4801C28.5316 42.5058 28.5614 42.5357 28.5872 42.5684C35.8989 47.6402 46.4136 49.9799 53.8763 50.079C61.3975 49.9906 73.1249 47.4688 80.6384 41.8723L80.6389 41.8729Z" fill="#F4D37C"/>
<path d="M81.8049 29.6192C81.8634 30.1225 81.8966 30.6287 81.9039 31.1353C81.9039 31.4118 81.8969 31.6956 81.8969 31.9916C81.8704 32.2825 81.8509 32.5855 81.8181 32.8947V32.8944C81.6724 34.2444 81.3163 35.5635 80.763 36.8036C79.7178 39.0405 78.0522 40.9303 75.9644 42.2484C75.3463 42.6456 74.6901 42.9814 74.0066 43.2501C73.532 43.435 73.2492 43.5012 73.2113 43.4349C73.1734 43.3687 73.388 43.1647 73.8041 42.8676C74.2326 42.5779 74.8132 42.1431 75.505 41.6092V41.6096C77.3137 40.2095 78.7699 38.4058 79.7569 36.3422C80.6515 34.2342 81.0822 31.9581 81.0204 29.6685C80.9939 27.8951 80.8356 26.7748 81.0134 26.735C81.1378 26.7048 81.5671 27.7732 81.8049 29.6192Z" fill="#F4D37C"/>
<path d="M74.1983 63.4268C74.2576 63.4799 73.7697 64.027 72.8269 64.9827C72.3585 65.4643 71.687 65.9389 70.9544 66.5448C70.5789 66.8415 70.1238 67.0919 69.6695 67.3886C69.4317 67.5337 69.1949 67.6784 68.9512 67.8304C68.7075 67.9825 68.4431 68.0955 68.1799 68.2325L68.1803 68.2328C65.6811 69.5413 62.9921 70.4488 60.211 70.9215C56.8147 71.522 53.3499 71.6376 49.9208 71.2642C46.4863 70.9208 43.1223 70.0645 39.9417 68.7232C38.5544 68.1293 37.2166 67.4261 35.9409 66.6203C34.8319 65.9142 33.7834 65.1175 32.806 64.2383C31.393 62.9623 30.1839 61.4775 29.2204 59.8351C28.9561 59.3944 28.7271 58.9334 28.5345 58.4567C28.4027 58.1342 28.3497 57.9493 28.3825 57.9361C28.5806 57.8043 29.7476 60.6185 33.3199 63.6448L33.3203 63.6452C35.4339 65.3722 37.7993 66.7657 40.3342 67.7778C43.4411 69.0208 46.7074 69.8219 50.0372 70.1572C53.3664 70.521 56.7293 70.4389 60.037 69.9135C62.7401 69.5004 65.3691 68.6968 67.841 67.5279C68.1061 67.4034 68.3818 67.2974 68.6193 67.1593C68.8571 67.0217 69.0939 66.8943 69.3262 66.7706C69.7742 66.5055 70.2223 66.2953 70.6048 66.032C71.3495 65.4912 72.0413 65.0759 72.5424 64.6544C73.0365 64.1717 73.5939 63.759 74.1992 63.427L74.1983 63.4268Z" fill="#F4D37C"/>
<path d="M70.8 44.3123C70.86 44.4378 69.6274 45.2154 67.4424 46.099C66.1638 46.6059 64.8563 47.0374 63.5273 47.3905C61.8942 47.8131 60.2367 48.1345 58.5642 48.3529C56.8868 48.5572 55.1976 48.65 53.5081 48.6305C52.1301 48.6021 50.7554 48.4766 49.395 48.2538C47.0484 47.8518 45.7229 47.2988 45.7494 47.1663C45.7829 46.9947 47.2199 47.2856 49.487 47.4704C50.6276 47.5816 51.9982 47.6081 53.508 47.6022C55.0241 47.5624 56.6845 47.4634 58.4252 47.2487C65.4049 46.4215 70.6645 44.003 70.8002 44.3123L70.8 44.3123Z" fill="#F4D37C"/>
<path d="M32.8617 42.6501C34.3311 43.745 35.38 44.2519 35.3067 44.4235C35.2677 44.542 34.0873 44.2847 32.4199 43.3031V43.3028C31.963 43.0417 31.5267 42.7465 31.1147 42.4192C30.6317 42.0547 30.1737 41.6582 29.7433 41.2326C28.7445 40.2437 27.9095 39.1023 27.2693 37.851C26.6408 36.5709 26.2947 35.1707 26.2539 33.7453C26.2602 33.422 26.2672 33.0995 26.2804 32.7891C26.3327 32.4791 26.3795 32.1831 26.4314 31.8993C26.4579 31.7542 26.4844 31.6158 26.5109 31.477C26.5569 31.3452 26.5992 31.2119 26.6427 31.0882C26.731 30.8312 26.8143 30.5871 26.8997 30.3567H26.9C27.1957 29.6487 27.5955 28.9889 28.0866 28.3995C28.4294 27.9905 28.6529 27.7924 28.7121 27.8322C28.7714 27.8719 28.6794 28.1554 28.4471 28.6274C28.122 29.2695 27.8506 29.9373 27.636 30.6243C27.5837 30.8416 27.5307 31.0661 27.4718 31.304C27.439 31.4225 27.4125 31.5407 27.3834 31.6662C27.3702 31.7918 27.3569 31.9162 27.3437 32.048C27.3172 32.3131 27.2844 32.5782 27.2553 32.8528C27.2616 33.1293 27.2686 33.4132 27.2818 33.7092V33.7088C27.3739 34.9775 27.7071 36.2167 28.2633 37.3606C28.8572 38.5063 29.5998 39.5681 30.4724 40.5187C30.8593 40.9359 31.2687 41.3316 31.6987 41.7046C32.0673 42.0425 32.4553 42.3585 32.8617 42.6501Z" fill="#F4D37C"/>
</svg>
