<svg width="75" height="76" viewBox="0 0 75 76" fill="none" xmlns="http://www.w3.org/2000/svg">
<path d="M37.3746 0.941126C17.2803 0.941126 0.935728 17.5285 0.935728 37.9219C0.935728 58.3152 17.2803 74.8957 37.3746 74.8957C57.4689 74.8957 73.8135 58.3083 73.8135 37.9219C73.8135 17.5354 57.4621 0.941126 37.3746 0.941126ZM37.3746 75.8368C16.768 75.8368 0 58.8273 0 37.9219C0 17.0164 16.768 0 37.3746 0C57.9812 0 74.7424 17.0095 74.7424 37.9219C74.7424 58.8342 57.9812 75.8368 37.3746 75.8368Z" fill="white"/>
<path d="M12.4648 16.4074H13.8719V17.3209H28.7411C28.8572 17.3001 36.4865 35.2161 37.3744 38.3924C38.4058 35.057 43.2415 24.1856 46.0214 17.3347L60.8633 17.3209V16.4074H62.3659V28.9466H60.8633V24.843C60.8633 18.9886 56.2598 18.6841 49.0335 18.6841V35.057L54.2312 35.0777L54.279 35.0362V29.0434H55.5221L55.5563 44.9111H54.1356C54.1356 40.2401 54.8459 36.4479 49.0267 36.4479V57.1873C55.0235 57.3188 60.8565 56.8205 60.8565 50.9177V44.9111H62.3591V59.6024H60.8565V58.6405L41.6911 58.6059V57.1804C45.9872 57.1804 46.9025 56.6129 46.9025 52.6616V23.452C45.2906 29.0296 37.4359 47.4577 37.5383 47.3746C37.6135 47.3193 29.4992 29.1057 27.778 23.5074C27.7029 23.6527 27.7302 52.537 27.7302 52.537H27.7097C27.7849 56.516 28.7411 57.1873 32.3064 57.1527V58.5713C29.5539 58.6059 16.7064 58.6059 13.9333 58.592L13.9743 59.6024H12.4648V44.9111H13.9743V50.9177C13.9743 56.7721 19.739 57.1873 25.6539 57.1873V36.4479C19.8346 36.4479 20.5995 40.1432 20.5995 44.9111H19.1311V28.9466H20.5995V35.057H25.6539V18.6841C18.4754 18.6841 14.1246 18.9886 13.9743 24.843V28.9466H12.4648V16.4074Z" fill="white"/>
</svg>
