<svg width="271" height="130" viewBox="0 0 271 130" fill="none" xmlns="http://www.w3.org/2000/svg">
<g clip-path="url(#clip0_158_1153)">
<path d="M212.705 101.33C212.889 101.801 213.504 102.562 213.374 105.392C213.265 107.807 211.25 109.489 209.638 110.146C207.767 110.908 206.189 110.61 206.189 110.61C205.656 110.811 205.075 111.101 205.246 111.6L205.649 112.195C205.649 112.195 210.335 111.69 213.128 114.029C214.767 115.399 216.332 116.942 216.502 120.699C216.42 125.793 213.456 130 207.166 130C201.537 130 198.17 124.948 198.136 120.824C198.088 115.523 203.498 112.728 203.477 112.651C203.102 111.316 203.675 110.859 204.481 110.216C201.578 109.185 201.107 106.894 201.128 104.479C201.23 102.181 202.569 98.5138 207.336 98.5622C209.679 98.583 210.123 99.3511 211.325 99.9739C213.135 99.6279 213.354 98.5207 212.261 97.2751L213.395 96.8253C214.733 98.5968 214.412 100.348 212.712 101.33M199.734 120.782C199.857 124.243 203.641 128.125 208.04 127.959C214.037 127.73 215.348 123.696 214.938 120.243C214.631 117.648 211.031 114.257 207.295 114.07C202.405 113.814 199.591 116.9 199.734 120.782ZM207.541 109.274C210.745 109.274 211.509 107.399 211.407 104.23C211.325 101.773 209.604 100.05 207.295 100.022C204.29 99.9808 203.095 101.607 203.02 104.23C202.938 107.067 204.871 109.274 207.548 109.274" fill="white"/>
<path d="M239.691 105.565C237.915 111.669 241.91 115.994 247.129 115.994C253.194 115.994 255.475 110.444 255.509 110.499C255.516 110.485 256.466 110.984 256.466 110.984C256.466 110.984 253.781 117.627 246.678 117.745C241.624 117.828 236.911 114.153 236.972 108.001C237.02 103.898 241.576 98.4723 247.491 98.4377C254.294 98.4377 256.493 103.441 256.657 105.565H239.684H239.691ZM240.333 104.223H253.897C252.907 101.891 250.277 100.348 247.279 100.389C243.29 100.444 241.139 102.687 240.333 104.223Z" fill="white"/>
<path d="M13.3734 87.85H14.555V97.1575H13.4007C13.4007 96.3478 13.4622 94.86 13.4007 94.0296C13.4007 91.8913 10.6209 90.3896 8.85186 90.3896C8.0459 90.3896 6.27689 90.4035 5.47094 90.4035V99.2888H8.92699V95.2337H10.1086V104.991H8.92699C8.92699 104.375 8.92699 103.344 8.92699 102.728C8.92699 101.621 8.51035 100.901 7.73855 100.534C7.1853 100.271 6.49546 100.216 5.46411 100.216V116.25H7.38338C9.73978 116.271 11.9049 115.53 12.8612 113.925C13.551 112.769 13.3734 111.288 13.3598 108.749H14.5414V118.956H13.3871C13.3803 118.644 13.3871 118.79 13.3871 118.596C13.3871 117.703 12.2123 117.336 9.9925 117.322C6.70036 117.322 3.27163 117.309 -0.0205078 117.309V116.25H2.64325V94.3964C2.62276 90.8395 2.62276 90.3896 1.16111 90.4035H-1.73524e-05V89.3516H13.3734V87.85Z" fill="white"/>
<path d="M16.4472 103.316C16.5291 103.247 21.0507 98.0709 21.1941 97.8771C21.2693 97.9671 21.8157 98.4238 21.9659 98.5553C21.9523 98.6176 20.8185 99.884 20.7843 99.9047C20.7843 100.119 20.7775 100.79 20.7843 100.79C20.9278 100.631 21.6859 99.7248 22.3962 99.3926C23.6598 98.7975 24.3907 98.7075 25.504 98.8875C26.8973 99.1158 27.2457 99.6279 27.2798 99.6348C27.2798 99.0466 27.2866 98.2231 27.2866 97.6349H28.3521V105.385H27.2798C27.2798 104.403 27.2935 103.268 27.2798 103.268C27.2798 101.136 26.146 100.112 24.5614 100.085C22.9017 100.05 20.7843 101.123 20.7843 103.697V114.084C20.7912 115.433 21.0849 116.229 22.2255 116.229H23.4618V117.316C20.7229 117.316 18.9539 117.329 16.3516 117.316V116.229H18.5714C18.5714 111.745 18.5782 102.451 18.5714 102.451C18.5236 102.555 17.1644 104.057 17.1439 104.057C17.0209 103.925 16.6794 103.565 16.454 103.309" fill="white"/>
<path d="M35.838 98.5069C35.6194 98.7491 34.711 99.7732 34.67 99.8148V114.222C34.6564 115.115 35.0252 116.271 35.9404 116.236C36.4117 116.25 36.3502 116.236 36.7601 116.257V117.322C36.118 117.336 31.5486 117.322 30.1826 117.322V116.236H32.4297C32.4297 111.662 32.4366 102.347 32.4297 102.347C32.2248 102.597 31.214 103.718 30.9271 104.064C30.6812 103.801 30.4148 103.503 30.1894 103.282C30.4763 102.97 34.9296 97.9533 34.9842 97.8495C35.0047 97.8495 35.6331 98.3477 35.8448 98.5069" fill="white"/>
<path d="M31.835 92.0574C31.835 91.137 32.5726 90.3896 33.481 90.3896C34.3894 90.3896 35.1203 91.137 35.1203 92.0574C35.1203 92.9777 34.3826 93.7251 33.481 93.7251C32.5794 93.7251 31.835 92.9777 31.835 92.0574Z" fill="white"/>
<path d="M73.9437 116.236C73.9437 116.589 73.9437 116.956 73.9437 117.302H67.4619C67.4619 116.956 67.4619 116.589 67.4619 116.236H69.2309C69.2309 113.205 69.2377 105.496 69.2309 105.496C69.2309 102.541 68.8211 101.476 67.6258 100.576C65.488 99.0535 61.6494 100.514 61.6494 103.199V112.873C61.6494 115.71 62.0387 116.215 64.4429 116.236V117.281C61.1372 117.26 60.1468 117.281 57.2713 117.281C57.2713 116.921 57.2508 116.596 57.2508 116.236H59.4296C59.4296 107.8 59.4433 90.8187 59.4296 90.8187C58.9993 91.3377 58.3983 92.0089 57.8109 92.6179C57.4694 92.3619 57.0596 91.9328 57.0391 91.9328C57.0664 91.829 61.8611 86.4867 61.8611 86.4937C62.3461 86.8812 62.6466 87.158 62.6466 87.1649C62.6398 87.1649 61.7109 88.2306 61.6426 88.2929V100.389C63.555 98.4792 66.3486 98.0432 68.4249 99.012C70.6652 100.015 71.4575 101.773 71.4507 104.873V109.441C71.4507 110.7 71.4643 112.478 71.4643 113.738C71.478 115.551 71.9971 116.243 73.0216 116.243H73.9232" fill="white"/>
<path d="M88.457 89.3309H93.5592C93.6001 89.4416 100.007 104.34 100.02 104.34C100.048 104.23 105.287 89.5592 105.3 89.4278H105.362V89.3378H110.259V90.4173C109.494 90.4173 108.954 90.3966 108.189 90.3966C108.128 90.5627 108.189 108.679 108.189 114.243C108.189 114.99 108.367 116.236 109.439 116.236C109.808 116.236 109.958 116.236 110.436 116.236V117.309H103.36V116.264H105.28C105.28 110.679 105.293 94.0019 105.293 93.6352C105.164 93.9742 99.9385 108.423 99.5492 109.482C99.3921 109.088 93.0059 93.7666 92.9718 93.6767C92.9649 93.6767 92.9718 107.351 92.9718 114.015C93.0264 116.326 94.6998 116.229 95.294 116.229C95.5331 116.229 95.5262 116.229 95.9839 116.257V117.274H89.0513V116.229H91.3325C91.3325 109.904 91.3394 92.5625 91.3325 92.5625C91.3257 91.7321 91.0798 90.8118 89.9187 90.4727C89.5567 90.3689 88.983 90.4035 88.4639 90.4035V89.324L88.457 89.3309Z" fill="white"/>
<path d="M124.978 116.236H127.396V117.274H122.683C122.683 116.845 122.69 116.035 122.683 116.035C122.683 116.049 121.385 117.585 119.241 117.731C116.529 117.855 112.39 116.409 112.431 111.371C112.451 107.6 115.976 104.569 119.268 104.839C120.258 104.922 121.754 105.109 122.683 106.022C122.683 105.669 122.69 103.469 122.683 103.469C122.683 102.23 121.857 99.8563 118.858 99.8563C116.871 99.8563 114.494 101.697 114.494 103.406C114.48 103.406 114.494 104.437 114.494 105.413H113.216V97.628H114.494C114.494 97.8702 114.494 100.444 114.487 100.963C115.108 99.358 117.062 98.6314 118.865 98.6176C123.612 98.4446 124.971 101.898 124.971 104.05V116.229L124.978 116.236ZM117.683 115.876C119.76 116.679 121.816 115.461 122.69 114.928C122.69 113.177 122.69 108.098 122.69 107.807C122.69 107.8 122.273 106.984 120.962 106.52C119.978 106.167 118.216 105.932 116.672 106.707C114.596 107.78 114.029 110.638 114.501 112.541C114.924 114.305 116.973 115.447 117.69 115.876" fill="white"/>
<path d="M129.377 103.316C129.459 103.247 133.98 98.0709 134.131 97.8771C134.206 97.9671 134.752 98.4238 134.896 98.5553C134.875 98.6176 133.741 99.884 133.714 99.9047C133.714 100.119 133.707 100.79 133.714 100.79C133.857 100.631 134.616 99.7248 135.319 99.3926C136.583 98.7975 137.313 98.7075 138.427 98.8875C139.82 99.1158 140.169 99.6279 140.203 99.6348C140.203 99.0466 140.203 98.2231 140.203 97.6349H141.268V105.385H140.203C140.203 104.403 140.209 103.268 140.203 103.268C140.203 101.136 139.069 100.112 137.477 100.085C135.818 100.05 133.7 101.123 133.7 103.697V114.084C133.707 115.433 134.001 116.229 135.142 116.229H136.378V117.316C133.639 117.316 131.87 117.329 129.268 117.316V116.229H131.487C131.487 111.745 131.494 102.451 131.487 102.451C131.433 102.555 130.074 104.057 130.053 104.057C129.93 103.925 129.595 103.565 129.363 103.309" fill="white"/>
<path d="M164.053 116.236H166.471V117.274H161.758C161.758 116.845 161.765 116.035 161.758 116.035C161.758 116.049 160.46 117.585 158.316 117.731C155.604 117.855 151.465 116.409 151.506 111.371C151.527 107.6 155.051 104.569 158.343 104.839C159.334 104.922 160.829 105.109 161.751 106.022C161.751 105.669 161.765 103.469 161.751 103.469C161.751 102.23 160.925 99.8563 157.933 99.8563C155.946 99.8563 153.562 101.697 153.562 103.406C153.555 103.406 153.562 104.437 153.562 105.413H152.285V97.628H153.562C153.562 97.8702 153.562 100.444 153.562 100.963C154.184 99.358 156.137 98.6314 157.94 98.6176C162.687 98.4446 164.053 101.898 164.053 104.05V116.229V116.236ZM156.759 115.876C158.835 116.679 160.891 115.461 161.758 114.928V107.807C161.758 107.807 161.342 106.984 160.037 106.52C159.047 106.167 157.291 105.932 155.741 106.707C153.664 107.78 153.104 110.638 153.562 112.541C153.992 114.305 156.041 115.447 156.752 115.876" fill="white"/>
<path d="M195.069 87.8638H196.25V97.1713C195.854 97.1713 195.485 97.1782 195.089 97.1782C195.089 96.3686 195.158 94.8669 195.089 94.0434C195.089 91.9051 192.316 90.4104 190.547 90.4104C189.734 90.4104 187.972 90.4173 187.159 90.4173V99.3096H190.622V95.2544H191.804V105.012H190.622V102.749C190.622 101.649 190.213 100.922 189.434 100.555C188.881 100.292 188.184 100.244 187.159 100.244V116.278H189.086C191.435 116.298 193.6 115.558 194.563 113.945C195.253 112.79 195.076 111.309 195.062 108.769H196.244V118.976H195.082V118.617C195.082 117.731 193.914 117.357 191.695 117.343C188.403 117.343 184.974 117.329 181.682 117.329V116.278H184.352V94.4171C184.325 90.8602 184.325 90.4173 182.87 90.4243H181.688V89.3724H195.069V87.8708V87.8638Z" fill="white"/>
<path d="M232.812 101.289C232.997 101.759 233.618 102.52 233.482 105.351C233.359 107.766 231.351 109.447 229.732 110.105C227.867 110.866 226.283 110.569 226.283 110.569C225.75 110.769 225.169 111.06 225.347 111.551L225.75 112.146C225.75 112.146 230.435 111.641 233.229 113.98C234.868 115.35 236.425 116.893 236.596 120.651C236.514 125.737 233.55 129.952 227.259 129.952C221.631 129.952 218.257 124.9 218.223 120.776C218.175 115.475 223.591 112.679 223.564 112.603C223.195 111.267 223.769 110.811 224.568 110.167C221.665 109.136 221.201 106.846 221.221 104.43C221.324 102.126 222.656 98.4653 227.423 98.5069C229.766 98.5276 230.21 99.3027 231.412 99.9255C233.222 99.5795 233.441 98.4723 232.355 97.2267L233.482 96.7769C234.827 98.5484 234.499 100.299 232.805 101.282M219.828 120.734C219.951 124.194 223.735 128.076 228.127 127.91C234.124 127.682 235.435 123.647 235.032 120.194C234.725 117.606 231.118 114.215 227.389 114.022C222.492 113.766 219.691 116.852 219.828 120.734ZM227.635 109.226C230.838 109.226 231.603 107.351 231.501 104.181C231.419 101.718 229.691 100.002 227.389 99.9739C224.391 99.9324 223.188 101.552 223.113 104.181C223.031 107.012 224.964 109.226 227.642 109.226" fill="white"/>
<path d="M259.101 103.316C259.183 103.247 263.705 98.0709 263.855 97.8771C263.93 97.9671 264.477 98.4238 264.62 98.5553C264.607 98.6176 263.466 99.884 263.439 99.9047C263.439 100.119 263.425 100.79 263.439 100.79C263.575 100.631 264.34 99.7248 265.044 99.3926C266.307 98.7975 267.045 98.7145 268.151 98.8944C269.545 99.1228 269.893 99.6348 269.934 99.6348C269.934 99.0466 269.934 98.2301 269.934 97.6349H270.993V105.392H269.927C269.927 104.417 269.927 103.275 269.927 103.275C269.927 101.143 268.787 100.119 267.202 100.092C265.542 100.064 263.425 101.13 263.425 103.704V114.098C263.432 115.44 263.725 116.236 264.866 116.236H266.109V117.322C263.37 117.322 261.601 117.336 258.992 117.322V116.236H261.212C261.212 111.752 261.226 102.458 261.212 102.458C261.157 102.562 259.798 104.064 259.784 104.064C259.655 103.939 259.32 103.572 259.095 103.316" fill="white"/>
<path d="M148.768 98.5069C148.549 98.7491 147.641 99.7732 147.593 99.8148V114.222C147.579 115.115 147.948 116.271 148.863 116.236C149.335 116.25 149.273 116.236 149.683 116.257V117.322C149.041 117.336 144.472 117.322 143.105 117.322V116.236H145.353C145.353 111.662 145.366 102.347 145.353 102.347C145.155 102.597 144.144 103.718 143.857 104.064C143.611 103.801 143.345 103.503 143.112 103.282C143.406 102.97 147.859 97.9533 147.907 97.8495C147.928 97.8495 148.556 98.3477 148.768 98.5069Z" fill="white"/>
<path d="M144.758 92.0574C144.758 91.137 145.495 90.3896 146.397 90.3896C147.299 90.3896 148.043 91.137 148.043 92.0574C148.043 92.9777 147.305 93.7251 146.397 93.7251C145.489 93.7251 144.758 92.9777 144.758 92.0574Z" fill="white"/>
<path d="M52.5099 97.6419H53.8281V108.001H52.5099V102.022C52.5099 101.053 50.6862 100.092 48.685 100.043C46.834 99.9947 44.6279 100.479 42.7701 101.988C37.5313 107.344 41.1923 115.696 47.5922 116.125C51.7312 116.374 54.2789 113.551 54.2994 113.551C54.3608 113.482 54.4155 113.413 54.477 113.343C54.4838 113.343 55.3307 114.347 55.3307 114.361C55.3171 114.375 52.9607 117.489 47.2302 117.807C42.4012 117.987 39.0545 114.222 38.4329 110.236C37.8524 105.641 39.9082 101.87 43.7946 99.7663C46.6428 98.147 50.9458 98.4169 52.503 99.8009V97.6419H52.5099Z" fill="white"/>
<path d="M134.547 0.941126C114.453 0.941126 98.1086 17.5285 98.1086 37.9219C98.1086 58.3152 114.453 74.8957 134.547 74.8957C154.642 74.8957 170.986 58.3083 170.986 37.9219C170.986 17.5354 154.635 0.941126 134.547 0.941126ZM134.547 75.8368C113.941 75.8368 97.1729 58.8273 97.1729 37.9219C97.1729 17.0164 113.941 0 134.547 0C155.154 0 171.915 17.0095 171.915 37.9219C171.915 58.8342 155.154 75.8368 134.547 75.8368Z" fill="white"/>
<path d="M109.638 16.4074H111.045V17.3209H125.914C126.03 17.3001 133.659 35.2161 134.547 38.3924C135.579 35.057 140.414 24.1856 143.194 17.3347L158.036 17.3209V16.4074H159.539V28.9466H158.036V24.843C158.036 18.9886 153.433 18.6841 146.206 18.6841V35.057L151.404 35.0777L151.452 35.0362V29.0434H152.695L152.729 44.9111H151.308C151.308 40.2401 152.019 36.4479 146.2 36.4479V57.1873C152.196 57.3187 158.029 56.8205 158.029 50.9177V44.9111H159.532V59.6024H158.029V58.6405L138.864 58.6059V57.1803C143.16 57.1803 144.075 56.6129 144.075 52.6616V23.452C142.463 29.0296 134.609 47.4577 134.711 47.3746C134.786 47.3193 126.672 29.1057 124.951 23.5074C124.876 23.6527 124.903 52.537 124.903 52.537H124.883C124.958 56.516 125.914 57.1873 129.479 57.1527V58.5713C126.727 58.6059 113.879 58.6059 111.106 58.592L111.147 59.6024H109.638V44.9111H111.147V50.9177C111.147 56.7721 116.912 57.1873 122.827 57.1873V36.4479C117.007 36.4479 117.772 40.1432 117.772 44.9111H116.304V28.9466H117.772V35.057H122.827V18.6841C115.648 18.6841 111.297 18.9886 111.147 24.843V28.9466H109.638V16.4074Z" fill="white"/>
</g>
<defs>
<clipPath id="clip0_158_1153">
<rect width="271" height="130" fill="white"/>
</clipPath>
</defs>
</svg>
