<svg width="99" height="75" viewBox="0 0 99 75" fill="none" xmlns="http://www.w3.org/2000/svg">
<path opacity="0.5" d="M89.7188 74.2578C94.8447 74.2578 99 70.1025 99 64.9766V9.28906C99 4.16315 94.8447 0.0078125 89.7188 0.0078125H9.28125C4.15534 0.0078125 0 4.16315 0 9.28906V64.9766C0 70.1025 4.15534 74.2578 9.28125 74.2578H89.7188ZM21.6563 10.8359C27.6364 10.8359 32.4844 15.6839 32.4844 21.6641C32.4844 27.6442 27.6364 32.4922 21.6563 32.4922C15.6761 32.4922 10.8281 27.6442 10.8281 21.6641C10.8281 15.6839 15.6761 10.8359 21.6563 10.8359ZM12.375 61.8828V52.6016L26.2028 38.7735C27.1092 37.8673 28.5783 37.8673 29.4845 38.7735L40.2188 49.5078L66.4216 23.3048C67.328 22.3986 68.797 22.3986 69.7032 23.3048L86.625 40.2266V61.8828H12.375Z" fill="black"/>
</svg>
