<svg width="70" height="95" viewBox="0 0 70 95" fill="none" xmlns="http://www.w3.org/2000/svg">
<path d="M66.6839 25.3366C70.7092 30.5145 70.2649 37.3678 69.3654 43.5173C68.2076 51.4699 65.2696 59.0588 60.7702 65.7173C56.492 71.9799 51.6352 78.2033 45.6359 82.9034C42.5565 85.2776 39.2557 87.3502 35.78 89.0923C32.4805 90.768 29.1973 92.5499 25.5427 93.3706C21.8326 94.3207 17.9302 94.2121 14.2784 93.0577C11.6969 92.1754 8.43825 91.3993 6.48717 89.342C4.17272 86.8769 2.40646 83.9497 1.30514 80.7527C0.203818 77.556 -0.20754 74.1616 0.0978503 70.7942C1.64341 54.4449 14.8208 43.3825 22.9896 30.1097C21.8358 28.7978 20.9834 27.2493 20.4932 25.5727H20.4596C14.922 25.3765 14.0054 14.869 17.8508 12.1255C18.0454 11.9792 18.2996 11.9387 18.5301 12.017C18.7605 12.0952 18.9375 12.282 19.003 12.5166C19.0653 12.5541 19.1256 12.5955 19.1829 12.6402C20.1278 10.9003 21.4778 9.41371 23.1186 8.30555C26.2479 6.02038 29.8169 4.40866 33.6003 3.57225C32.0765 -0.0315961 41.8586 -1.8253 40.6946 3.4158C45.642 4.30527 50.3753 7.52096 52.6015 12.0243C53.4626 11.8701 54.3495 12.0673 55.064 12.5719C56.9641 14.1123 57.6383 17.0017 57.3123 19.8122C59.2014 20.4191 61.3432 20.6163 63.0227 21.7522C64.4268 22.7434 65.6628 23.9532 66.6836 25.3358L66.6839 25.3366ZM62.7263 58.927C66.1503 51.5341 68.3585 44.0572 68.2467 35.8158C68.1965 32.6562 67.6789 29.6042 65.8015 26.9846C64.66 25.3826 63.2983 23.6059 61.4332 22.8018C59.9785 22.2885 58.4978 21.851 56.9979 21.4909C56.3682 23.8572 55.0188 25.9542 53.0795 26.8649C53.4449 26.8985 53.8663 26.9431 54.35 27.0112C56.539 27.2476 58.6518 27.9509 60.5454 29.0741C61.5467 29.7635 62.4257 30.6152 63.1464 31.5943C63.706 32.4085 64.1627 33.2882 64.5069 34.2141C65.0802 35.7714 65.2429 36.7776 65.1327 36.8174C64.9974 36.8675 64.604 35.9233 63.8961 34.484H63.8958C63.5017 33.6854 63.0373 32.9234 62.5073 32.2076C62.4796 32.2243 62.4493 32.2357 62.4173 32.2412C62.5353 32.4211 62.6592 32.601 62.771 32.7888C65.515 37.4712 65.1835 43.0544 63.9858 48.1642C62.358 55.345 59.3405 62.1371 55.1036 68.1581C48.8746 76.7983 38.7727 84.7935 28.5856 88.2003C24.3614 89.6084 19.0626 90.4265 15.1668 87.6433C10.5962 84.383 9.20767 78.9072 9.81453 73.5161C10.5453 67.0117 13.0078 61.0786 16.2854 55.4597C18.8597 51.0573 21.4349 46.777 23.8129 42.3664H23.8132C23.8455 42.2246 23.913 42.0929 24.0094 41.984C24.0156 41.973 24.0267 41.9677 24.0375 41.956C25.454 39.3025 26.7871 36.5982 28.0067 33.7822C26.6238 33.1635 25.3425 32.3389 24.2066 31.3366C20.0969 37.7507 15.6257 43.926 10.8145 49.8319C6.30091 55.5602 2.56798 62.5256 1.87143 69.9008C1.4539 73.3679 1.80493 76.8843 2.90007 80.1998C4.08684 83.5338 6.08772 87.7094 9.42173 89.3749C12.6938 91.0052 16.7638 92.4999 20.4633 92.3598C24.6249 92.1355 28.6835 90.983 32.3418 88.9866C38.739 85.6135 44.9796 82.0553 49.9376 76.6918C54.8062 71.4243 59.6967 65.4758 62.7273 58.9266L62.7263 58.927ZM59.038 57.7465C61.5679 51.8992 64.2947 44.4061 62.9291 37.9404V37.9407C62.6836 36.7572 62.2726 35.6142 61.7087 34.5451C64.829 46.0581 53.8439 60.0335 47.5014 68.3992C42.4253 75.0952 35.7239 81.1496 27.4158 83.3399C23.851 84.2786 19.4049 85.2626 15.8686 83.731C14.5065 83.1427 13.2956 82.2529 12.3275 81.1285C13.4345 84.3357 15.6498 86.9467 19.489 87.6048C24.824 88.5272 30.3504 86.0403 34.8645 83.4277C45.4004 77.3379 54.1424 69.0743 59.0378 57.7465L59.038 57.7465ZM48.0256 64.8917C54.2882 56.4084 65.83 41.0463 57.9057 30.5203C55.8745 29.358 53.5838 28.7238 51.2442 28.6756C48.3623 32.3977 42.9772 34.3368 38.5138 34.9893C37.6706 36.9847 35.8542 38.3005 33.6567 36.7265C33.615 36.7082 33.5755 36.6854 33.5387 36.6584C30.7272 38.614 27.7651 40.3913 25.4324 42.9326C23.3353 46.8673 21.0697 50.6903 18.7481 54.6034C15.3016 60.3998 12.0693 66.6679 11.5011 73.515V73.5153C11.4288 74.3865 11.4102 75.2614 11.4448 76.1349C11.4679 76.1789 11.4888 76.2242 11.5067 76.2705C14.5574 85.3046 25.1625 83.2694 31.9645 79.8118C38.7108 76.3822 43.596 70.8954 48.0258 64.8919L48.0256 64.8917ZM55.5078 19.558C55.6519 18.3775 55.5776 17.1806 55.2888 16.0268C55.1578 15.3384 54.841 14.699 54.3729 14.1778C52.3485 12.5422 50.432 14.7511 51.7077 15.9652C51.873 16.1217 52.0294 16.2869 52.1771 16.4603C52.0698 15.6618 52.0363 15.0774 52.2217 15.0321C52.4564 14.9757 53.0542 16.0272 53.2957 17.6018C53.3348 17.8991 53.3576 18.1807 53.3684 18.4505C53.6174 19.0708 53.7856 19.7208 53.869 20.384C53.9694 19.6484 54.0144 18.9059 54.0036 18.1634C53.9925 17.1856 53.8801 16.5106 54.0209 16.4823C54.1337 16.4604 54.4707 17.011 54.6734 18.096H54.6731C54.9123 19.491 54.8276 20.9222 54.4251 22.2788L54.3351 22.5767L54.2178 22.8628V22.8632C54.1526 23.0483 54.074 23.2289 53.9831 23.4029C53.8814 23.5828 53.7859 23.7683 53.6852 23.9316C53.6624 23.9603 53.6418 23.9903 53.6233 24.0215C53.5724 24.2015 53.5278 24.3814 53.4714 24.5551H53.4717C54.7109 23.177 55.4309 21.4098 55.5078 19.5581L55.5078 19.558ZM51.2563 25.4946C52.0744 23.7857 52.4356 21.894 52.3039 20.0038C50.3584 25.5975 44.7764 30.9887 38.7708 30.1626C38.849 30.7187 38.9227 31.2695 38.9898 31.821C38.9964 31.8787 38.9999 31.9367 39.0006 31.9947C39.0234 31.9445 39.0459 31.8992 39.0677 31.8545H39.0681C39.2092 31.5948 39.3982 31.364 39.6248 31.174C40.0293 30.837 40.2991 30.8477 40.3444 30.9159C40.3897 30.984 40.1756 31.1913 40.0009 31.511H40.0012C39.878 31.7066 39.7799 31.9168 39.7095 32.1368C39.6264 32.3712 39.5997 32.6218 39.6313 32.8682C39.6665 32.9455 39.7118 33.0172 39.7665 33.082C40.683 32.8953 41.5879 32.655 42.4761 32.3624C42.6094 32.23 42.67 32.0413 42.639 31.8562C42.5999 31.6215 42.3128 31.4237 42.1557 31.2936C41.9758 31.1701 41.8747 31.069 41.8913 31.0074C41.9076 30.9455 42.0432 30.923 42.2965 30.951H42.2962C42.4523 30.9788 42.6035 31.028 42.7459 31.0974C42.9428 31.1988 43.1077 31.352 43.2231 31.541C43.2384 31.2845 43.3157 31.0355 43.4487 30.8158C43.5849 30.5671 43.7593 30.3412 43.9656 30.147C44.2521 29.8712 44.593 29.6584 44.9662 29.5212C45.2198 29.4485 45.3769 29.4485 45.4049 29.5049C45.433 29.5613 45.3313 29.6792 45.1351 29.8474C44.8948 30.0785 44.6712 30.3266 44.4662 30.5896C44.3401 30.7643 44.2351 30.953 44.1533 31.1522C44.0709 31.3112 44.0471 31.4944 44.0862 31.6691C44.0917 31.6919 44.1198 31.6854 44.1198 31.7082C44.1325 31.7134 44.1439 31.7212 44.1533 31.731C45.2993 31.2581 46.3905 30.6626 47.4081 29.9543V29.9152C47.3847 29.6434 47.2175 29.4048 46.9701 29.2894C46.7791 29.1877 46.6275 29.1542 46.6213 29.0815C46.6103 29.0306 46.7511 28.925 47.0548 28.9296C47.2302 28.9381 47.4007 28.9918 47.549 29.086C47.5473 28.884 47.5682 28.6822 47.6109 28.4847C47.8081 27.5633 48.1395 27.0571 48.2579 27.1134C48.3759 27.1698 48.297 27.7034 48.2797 28.5583V28.558C48.2686 28.762 48.2879 28.9667 48.3361 29.1652C48.3361 29.1707 48.3416 29.1763 48.3416 29.187L48.3762 29.2043H48.3759C49.2771 28.4507 50.0417 27.5473 50.6359 26.5335C50.6522 26.4772 50.675 26.4217 50.6861 26.3709H50.6858C50.7125 26.2829 50.7295 26.1926 50.7366 26.101C50.7399 26.0899 50.7399 26.0785 50.7366 26.0675C50.7422 26.0619 50.7366 26.0619 50.7422 26.0557H50.7477L50.6975 25.9886C50.6802 25.955 50.6294 25.8931 50.4896 25.9159V25.9156C50.2308 25.9879 49.9873 26.1059 49.7699 26.2637C49.59 26.3764 49.4827 26.4436 49.4329 26.41C49.3827 26.3764 49.3993 26.2356 49.5166 26.0283H49.5163C49.6956 25.7138 49.9694 25.4641 50.2986 25.3142C50.6251 25.1763 51.0023 25.2471 51.2562 25.4941L51.2563 25.4946ZM51.1664 17.7927C50.4467 17.0557 49.6371 16.4097 49.4291 15.3302V15.3299C49.3444 14.7604 49.45 14.179 49.7297 13.6761C50.0093 13.1728 50.4474 12.7762 50.9754 12.5474C49.7365 10.3682 47.9817 8.52634 45.8647 7.18346C43.7478 5.84058 41.3339 5.0378 38.8343 4.84547C34.3027 4.57559 29.721 6.12118 25.8819 8.49405C21.4856 11.2039 17.8763 15.3472 21.384 20.4852C23.9872 24.3026 27.0849 26.8941 31.4585 28.0244C31.7395 25.2866 33.0097 23.1275 35.9275 23.6392V23.6389C36.4936 23.7357 37.0132 24.014 37.4075 24.4319C37.8022 24.8494 38.0503 25.3839 38.1145 25.955C38.2491 26.7702 38.3844 27.5906 38.5134 28.4119H38.5307C44.5233 29.716 50.0212 23.2063 51.1677 17.7925L51.1664 17.7927ZM39.0083 3.20404C39.3063 1.91105 38.0194 1.68585 36.9002 1.83187C36.0286 1.94464 34.7249 2.36607 35.3715 3.27671C36.5785 3.13395 37.7965 3.10951 39.0083 3.20404ZM37.3389 33.8532C37.3852 33.6599 37.4077 33.462 37.4063 33.2632C37.3692 32.3646 37.2528 31.4709 37.0583 30.5928C36.8747 29.734 36.744 28.865 36.6671 27.9902C36.6163 27.4159 36.689 25.6741 36.0094 25.387H36.0091C35.5234 25.1862 34.9755 25.2009 34.5013 25.4274C34.0271 25.6536 33.6708 26.0705 33.5215 26.5744C33.3224 27.3061 33.1963 28.0558 33.1454 28.8122C33.1803 28.9713 33.1705 29.1365 33.1171 29.2904C33.0216 31.4713 33.398 33.9336 34.5502 35.3052C35.7705 36.312 36.8327 35.317 37.2317 34.2039V34.2036C37.2487 34.0817 37.2849 33.9634 37.339 33.8532L37.3389 33.8532ZM32.6108 35.2612C32.5828 35.2048 32.56 35.154 32.5326 35.0976H32.5329C31.5245 34.9522 30.5314 34.7166 29.565 34.3936C29.5595 34.4046 29.5595 34.4164 29.5533 34.4327C28.918 35.9118 28.2437 37.356 27.5468 38.7842C29.1817 37.547 30.9183 36.4306 32.6112 35.2572L32.6108 35.2612ZM31.4658 31.8937C31.4938 31.759 31.5277 31.6293 31.5613 31.511C31.4753 30.9247 31.4228 30.3334 31.4048 29.7408C27.7468 28.8866 24.4318 26.9489 21.8927 24.1807C22.1864 25.7429 22.8432 27.2141 23.8099 28.4759C23.8904 28.3139 24.01 28.1747 24.158 28.0707C24.4197 27.8869 24.7408 27.8087 25.0576 27.8517C25.243 27.8908 25.3503 27.9472 25.3555 28.0082C25.3946 28.16 24.8721 28.2334 24.6022 28.5759V28.5763C24.4631 28.7725 24.4435 29.0297 24.5514 29.2451C24.5736 29.3139 24.6039 29.38 24.6413 29.442C24.8548 29.6665 25.0748 29.8856 25.3046 30.0935L25.305 30.0938C25.4259 30.1646 25.5582 30.2138 25.6961 30.2399C25.728 30.2535 25.7632 30.2578 25.7978 30.2516C25.8239 30.2548 25.8506 30.2526 25.876 30.2454C25.9467 30.2359 26.0165 30.2193 26.084 30.1955C26.3274 30.1004 26.5305 29.9234 26.6573 29.6949C26.73 29.5528 26.7026 29.3804 26.5901 29.2676C26.4891 29.1496 26.4102 29.0596 26.4337 28.9922C26.4571 28.925 26.5683 28.9022 26.788 28.9524C26.8382 28.9752 26.8998 28.9977 26.9617 29.0306C27.0298 29.0818 27.094 29.1382 27.1534 29.1995C27.2834 29.3777 27.3414 29.5984 27.316 29.8174C27.2345 30.3207 26.9157 30.7539 26.4594 30.9807C26.7211 31.1805 26.9952 31.3633 27.2801 31.5282C27.2801 31.5227 27.2746 31.5172 27.2746 31.5119V31.3601C27.2746 31.3203 27.359 31.2975 27.3645 31.2639L27.4317 31.0957L27.4545 31.084L27.4708 31.0338C27.4825 31.025 27.4923 31.0133 27.4991 31.0002L27.5219 30.9438L27.5673 30.8421H27.5669C27.5917 30.776 27.6256 30.7134 27.668 30.657C27.8068 30.4452 27.9949 30.2695 28.2155 30.1453C28.5203 29.965 28.8821 29.9067 29.2279 29.9827C29.4469 30.0498 29.5258 30.1453 29.5206 30.2072C29.5144 30.2809 29.3743 30.3027 29.1943 30.3536L29.194 30.3532C28.9734 30.424 28.7703 30.5407 28.5982 30.6961C27.845 31.4158 28.4802 31.7818 29.1324 32.1527C29.5085 32.3718 30.3638 32.8779 30.8243 32.7205C31.4703 32.507 30.7226 31.9555 30.9707 31.613C30.9987 31.5677 31.1617 31.5739 31.336 31.7421V31.7418C31.3836 31.7887 31.427 31.8396 31.4658 31.8937ZM19.6866 23.7176C19.714 22.9311 19.6537 22.144 19.5067 21.3708C19.5011 21.348 19.5011 21.3255 19.4956 21.3027C19.4008 21.1505 19.3176 20.9908 19.2476 20.8255C19.1856 20.6456 19.1185 20.4484 19.0621 20.2405H19.0624C19.0109 20.0051 18.9774 19.7665 18.9614 19.5263C18.2626 17.8784 18.1211 16.0476 18.5585 14.312C18.5474 14.3009 18.5367 14.3009 18.5305 14.2957C18.4405 14.2002 18.345 14.1102 18.2495 14.0258C16.4706 16.2572 16.9595 22.6043 19.6866 23.7174L19.6866 23.7176Z" fill="#F4D37C"/>
<path d="M49.301 12.7094L48.8685 13.0692C48.7505 13.1647 48.6338 13.2664 48.5142 13.3619C48.4242 13.4747 48.3062 13.5754 48.2215 13.6937C47.7955 14.3792 47.7348 15.2308 48.0588 15.97C48.3359 16.7859 48.4894 17.6385 48.5142 18.4996L48.5037 18.908L48.1494 18.8907C47.8232 18.8744 47.5086 18.8627 47.2107 18.8461C46.9366 18.8187 46.6641 18.7734 46.3956 18.7108C45.9653 18.6296 45.539 18.5266 45.1192 18.4018C44.4223 18.2108 44.0341 18.0648 44.0459 17.9856C44.0576 17.9067 44.4784 17.8956 45.1925 17.9576C46.0207 18.0602 46.8542 18.1147 47.6889 18.1212C47.5693 17.4742 47.4021 16.837 47.1883 16.2147C47.0302 15.7408 46.9412 15.247 46.9236 14.748C46.9164 14.163 47.1064 13.5922 47.4633 13.1288C47.5895 12.9691 47.7247 12.8172 47.8688 12.6735C47.2554 12.1337 46.6039 11.6503 46.0133 11.1615C45.4442 10.7087 44.92 10.2022 44.4488 9.64844C44.3103 9.83846 44.188 10.0396 44.0834 10.2501C43.927 10.563 43.7907 10.8352 43.6845 11.0542C43.4498 11.5095 43.2627 11.7403 43.2066 11.7067C43.1502 11.6732 43.2122 11.4088 43.3302 10.9245C43.3921 10.6774 43.4648 10.3847 43.5828 10.0304V10.0301C43.7109 9.59693 43.94 9.19994 44.2516 8.87237L44.4863 8.6377L44.7398 8.91865C45.2881 9.49979 45.8923 10.0252 46.5442 10.4871C47.3734 11.0614 48.1677 11.6846 48.9223 12.3534L49.301 12.7094Z" fill="#F4D37C"/>
<path d="M48.4703 20.1249L48.3138 20.5161C48.1675 20.8648 48.0221 21.2247 47.864 21.6011C47.6786 21.9672 47.4729 22.3381 47.2623 22.7204C47.0042 23.0858 46.7399 23.4792 46.4472 23.839C46.3018 23.9954 46.1437 24.159 45.9918 24.3279L45.7617 24.5749L45.7272 24.603L45.6653 24.6649L45.6033 24.7213L45.4687 24.8393L45.4697 24.8396C44.7552 25.4527 43.9857 25.9983 43.1705 26.4696C42.4199 26.9377 41.5662 27.2154 40.6839 27.2786L40.3185 27.2841L40.2794 26.936C40.2054 25.9393 39.9258 24.9687 39.4581 24.0854C39.121 23.501 38.7273 23.2086 38.801 23.1349C38.8228 23.1013 38.9356 23.1349 39.121 23.2249H39.1207C39.3948 23.3735 39.6376 23.5743 39.8352 23.8155C40.4209 24.5811 40.8159 25.4755 40.9874 26.4243C41.5992 26.2727 42.1822 26.0221 42.7129 25.6821C43.4655 25.2183 44.18 24.6949 44.8494 24.1176L44.9791 24.0104L45.0355 23.9658L45.0411 23.954L45.0691 23.9266L45.3038 23.6786C45.4602 23.516 45.6167 23.3533 45.7653 23.1952C46.0352 22.869 46.2542 22.5437 46.496 22.2338C46.6984 21.8853 46.8953 21.5483 47.0866 21.2224C47.1877 21.0089 47.2828 20.8117 47.3783 20.6155C46.967 20.5193 46.5482 20.459 46.1267 20.4356C45.5925 20.3958 45.12 20.3958 44.7265 20.3737C43.9397 20.3456 43.4844 20.272 43.4844 20.1875C43.4844 20.1031 43.9286 20.0194 44.7047 19.9066C45.1796 19.8388 45.6581 19.7954 46.1375 19.7775C46.7939 19.7345 47.4527 19.8085 48.083 19.9965L48.4703 20.1249Z" fill="#F4D37C"/>
<path d="M43.5789 15.3104C43.7924 15.4623 42.8928 16.9289 41.578 18.5818C40.2176 20.1783 38.9529 21.337 38.7558 21.1678C38.5586 20.9989 39.4917 19.5691 40.8529 17.97C42.1459 16.353 43.3655 15.1618 43.579 15.3104H43.5789Z" fill="#F4D37C"/>
<path d="M42.7638 7.27907C42.9215 7.55057 42.9769 7.86966 42.9202 8.17863C42.887 8.39766 42.8361 8.61375 42.7687 8.82464C42.6569 9.20175 42.5607 9.53323 42.4825 9.83701L42.3753 10.2588L42.0663 10.0789L42.0659 10.0785C41.6693 9.867 41.2948 9.61636 40.9473 9.33084C40.7127 9.12811 40.5986 8.99382 40.6266 8.93972C40.6547 8.88561 40.8238 8.9169 41.1155 9.02967C41.3183 9.1079 41.5849 9.21514 41.9141 9.34257C41.9476 9.11735 41.9868 8.88659 42.0321 8.64474C42.1048 8.26861 42.1611 7.85239 42.0376 7.73408H42.0379C41.9307 7.61707 41.8007 7.5232 41.6553 7.45899C41.4594 7.35696 41.2567 7.26864 41.0484 7.19432C40.6159 7.03168 40.1325 6.88142 39.6404 6.75007C38.7587 6.49943 37.8474 6.36905 36.9305 6.36286C36.4103 6.35993 35.8969 6.48346 35.4351 6.7227C35.6857 6.82765 35.9282 6.95183 36.1599 7.09361C36.4125 7.28983 36.5309 7.43063 36.5025 7.48474C36.4745 7.53884 36.289 7.50103 35.9908 7.39478H35.9911C35.5488 7.31362 35.1114 7.20639 34.6815 7.07405L34.2598 6.93944L34.5727 6.57407H34.573C34.8331 6.25497 35.1642 6.00074 35.5397 5.83191C35.9618 5.65004 36.4113 5.53954 36.8696 5.50564C37.8839 5.44404 38.9012 5.55649 39.8773 5.83712C40.3914 5.97271 40.8962 6.13992 41.3894 6.33776C41.6306 6.4362 41.8659 6.54864 42.0934 6.67511C42.3639 6.81722 42.5943 7.02483 42.7638 7.27907Z" fill="#F4D37C"/>
<path d="M38.2551 9.76977C40.8303 10.7365 42.7139 11.9601 42.5959 12.1752C42.4606 12.4232 40.4369 11.6018 37.9236 10.6576C35.4204 9.7469 33.3311 8.97116 33.4156 8.70649C33.4879 8.47052 35.658 8.82489 38.2551 9.76977Z" fill="#F4D37C"/>
<path d="M32.0374 18.9219C35.1071 20.3049 37.5132 21.6435 37.3952 21.8733C37.2772 22.1034 34.7137 21.1693 31.6385 19.7824C30.8735 19.4398 30.1428 19.0963 29.4906 18.7765C29.1777 18.62 28.8446 18.433 28.5519 18.2703C28.2765 18.0959 28.0239 17.9333 27.7876 17.7814C26.9108 17.1853 26.2756 16.8482 26.3371 16.7182C26.3935 16.6172 27.0623 16.7019 28.1135 17.196C28.3605 17.314 28.6304 17.4431 28.9231 17.5787C29.2148 17.7022 29.53 17.8368 29.8563 17.9832C30.531 18.2586 31.2669 18.5738 32.0375 18.9219L32.0374 18.9219Z" fill="#F4D37C"/>
<path d="M36.4114 33.5833C36.4567 33.6169 36.4623 33.7577 36.3104 33.9604C36.2009 34.0999 36.0418 34.1925 35.8661 34.2186C35.6243 34.2339 35.3854 34.1576 35.1973 34.0051C34.829 33.6863 34.5422 33.2841 34.3603 32.8324C34.1335 32.3291 33.9676 31.8008 33.8659 31.2584C33.6406 30.2761 33.6423 29.2552 33.8714 28.2735C33.949 27.9584 34.0989 27.6657 34.3095 27.4186C34.4838 27.2331 34.6074 27.2331 34.653 27.2622C34.7201 27.3019 34.653 27.4421 34.625 27.6165H34.6246C34.5738 27.8723 34.5419 28.1318 34.5292 28.3925C34.5174 29.2934 34.6057 30.1926 34.7928 31.074C34.9193 31.9325 35.2097 32.7591 35.6478 33.5085C35.8834 33.9488 36.3104 33.4716 36.4114 33.5834L36.4114 33.5833Z" fill="#F4D37C"/>
<path d="M32.2397 22.2447C32.3068 22.3011 32.0878 22.6883 31.6602 23.3125C31.0536 24.1013 30.6204 25.0097 30.3896 25.9777L30.3277 26.343L29.9516 26.3039C29.1641 26.2022 28.4144 25.9066 27.7698 25.4435C27.0801 24.9693 26.4433 24.4227 25.8699 23.8132C24.9987 22.8907 24.2313 21.8758 23.5818 20.7859L23.2783 20.2742L23.8259 20.1451C25.0765 19.8654 26.3565 19.739 27.6378 19.769C28.5602 19.7908 29.0934 19.8527 29.0999 19.9489C29.1061 20.045 28.5712 20.1562 27.6716 20.2859C26.8956 20.4094 25.8278 20.5277 24.6476 20.8139H24.6473C25.2307 21.6385 25.8693 22.4224 26.5582 23.1607C27.408 24.1606 28.4914 24.9351 29.7123 25.4152C30.0507 24.5075 30.5885 23.6871 31.2859 23.0146C31.8345 22.4693 32.1778 22.1939 32.2397 22.2447Z" fill="#F4D37C"/>
<path d="M31.8685 8.84755C31.9702 8.93751 31.773 9.36449 31.4467 9.99977C31.0396 10.8902 30.5442 11.7377 29.9682 12.5293C28.4037 14.2832 27.0058 15.4237 26.8086 15.2672C26.6007 15.0983 27.7473 13.5808 29.2039 11.9677C29.9079 11.0564 30.3773 10.2529 30.8796 9.6399C31.3874 9.05158 31.7784 8.76278 31.8685 8.84755Z" fill="#F4D37C"/>
<path d="M27.67 9.51727C27.8127 9.9071 27.8571 10.3262 27.799 10.7376C27.7544 11.0013 27.7035 11.1421 27.6527 11.1421C27.6018 11.1421 27.5464 11.0013 27.4962 10.7431V10.7428C27.4487 10.5199 27.3867 10.3002 27.3108 10.0851C26.7821 10.4957 26.125 10.9674 25.4053 11.5244C24.4709 12.1896 23.657 13.01 22.9989 13.9493L22.8073 14.2622L22.6508 14.594C22.5945 14.7003 22.5726 14.802 22.5273 14.9069C22.482 15.0161 22.4465 15.1292 22.4211 15.2446C22.3014 15.6683 22.2649 16.1113 22.3138 16.5487C22.3311 16.6497 22.3418 16.7514 22.3591 16.8521C22.3764 16.9532 22.4093 17.0376 22.4318 17.1331C22.484 17.286 22.5521 17.433 22.6345 17.5718C22.8063 17.8267 23.0739 18.0011 23.376 18.0555C23.9184 18.0985 24.4624 18.1135 25.0064 18.0998C25.4281 18.1116 25.6322 18.2015 25.6322 18.2563C25.6322 18.329 25.3975 18.3681 25.0305 18.4636C24.4676 18.6269 23.8855 18.7139 23.2995 18.7227C23.0648 18.708 22.8353 18.6468 22.6244 18.5428C22.5586 18.5131 22.4947 18.4796 22.4334 18.4417L22.3155 18.3462C22.219 18.2824 22.1336 18.2032 22.0629 18.1116C21.7239 17.6983 21.5091 17.1973 21.4439 16.6671C21.4015 16.4011 21.3849 16.1319 21.394 15.8627C21.4054 15.5843 21.4449 15.3073 21.512 15.0367C21.5788 14.7558 21.6694 14.481 21.7835 14.2154L21.9696 13.8242L22.1942 13.4481C22.9152 12.4051 23.8386 11.5179 24.9093 10.8393C25.8261 10.2207 26.6413 9.7715 27.256 9.41722L27.5595 9.2373L27.67 9.51727Z" fill="#F4D37C"/>
<path d="M22.9193 40.3298C22.609 41.0573 22.2208 41.7493 21.7616 42.3933C21.3704 43.0393 20.862 43.8265 20.3167 44.7541C20.0413 45.2149 19.7434 45.71 19.4282 46.2325C19.1131 46.755 18.7767 47.301 18.4615 47.8964C17.1121 50.219 15.7237 53.1586 14.2374 56.4189C12.7025 59.6748 10.8525 63.1652 9.39685 67.0108C7.94124 70.8439 7.07522 74.701 7.64294 78.1867H7.64262C8.0559 81.2854 9.36031 84.1977 11.3974 86.5691C12.7993 88.144 14.5876 89.3255 16.586 89.9977C16.9459 90.1049 17.2604 90.2056 17.5358 90.2903C17.8112 90.3748 18.0645 90.4083 18.2555 90.4539C18.6466 90.5494 18.8461 90.6104 18.8461 90.645C18.8461 90.6795 18.6271 90.6785 18.2275 90.645C18.0312 90.6277 17.7839 90.6114 17.4915 90.5667C17.1988 90.5048 16.8657 90.4321 16.4847 90.3532L16.4844 90.3529C14.3505 89.7884 12.418 88.6352 10.9079 87.0251C8.69352 84.6034 7.25452 81.5745 6.77599 78.3281C6.72873 78.0958 6.69516 77.8604 6.67496 77.6241C6.65214 77.3989 6.62965 77.1681 6.61303 76.9436C6.59673 76.719 6.56772 76.4827 6.55664 76.2467C6.56218 76.0049 6.56218 75.7578 6.56772 75.516C6.57326 75.2741 6.57326 75.0209 6.57326 74.7735C6.60129 74.5316 6.62411 74.2901 6.64693 74.0427V74.0431C6.68506 73.5509 6.74862 73.061 6.8376 72.5754C7.2007 70.5581 7.76003 68.581 8.50773 66.6726C9.99396 62.7542 11.8809 59.2576 13.4493 56.0416C14.7722 53.1369 16.253 50.3068 17.8846 47.5633C18.2216 46.9681 18.5763 46.4228 18.9189 45.9111C19.2615 45.3993 19.5766 44.916 19.8748 44.4662C20.4654 43.5611 21.0107 42.8079 21.4605 42.1892C21.8787 41.5188 22.3679 40.8949 22.9194 40.3291L22.9193 40.3298Z" fill="#F4D37C"/>
</svg>
